<svg width="218" height="58" viewBox="0 0 218 58" fill="none" xmlns="http://www.w3.org/2000/svg">
<path fill-rule="evenodd" clip-rule="evenodd" d="M30.229 12L35.944 28.0224L41.659 12H56V52H54.6542L46.028 27.2381L37.4018 52H34.5982L25.972 27.2381L17.3458 52H16V12H30.229Z" fill="url(#paint0_linear_23_83)"/>
<path fill-rule="evenodd" clip-rule="evenodd" d="M24.8317 53.786C12.7687 53.7529 3 43.9638 3 31.8931C3 19.8019 12.8018 10 24.893 10C24.9295 10 24.9659 10.0001 25.0023 10.0003H24.8317L24.8317 53.786Z" fill="url(#paint1_linear_23_83)"/>
<path d="M43.96 45C43.96 43.6267 44.26 42.4 44.86 41.32C45.46 40.2267 46.28 39.38 47.32 38.78C48.36 38.1667 49.52 37.86 50.8 37.86C52.36 37.86 53.6933 38.2333 54.8 38.98C55.92 39.7133 56.7333 40.7533 57.24 42.1H55.6C55.2 41.1533 54.5867 40.4133 53.76 39.88C52.9467 39.3467 51.96 39.08 50.8 39.08C49.7733 39.08 48.8467 39.32 48.02 39.8C47.2067 40.28 46.5667 40.9733 46.1 41.88C45.6333 42.7733 45.4 43.8133 45.4 45C45.4 46.1867 45.6333 47.2267 46.1 48.12C46.5667 49.0133 47.2067 49.7 48.02 50.18C48.8467 50.66 49.7733 50.9 50.8 50.9C51.96 50.9 52.9467 50.64 53.76 50.12C54.5867 49.5867 55.2 48.8533 55.6 47.92H57.24C56.7333 49.2533 55.92 50.2867 54.8 51.02C53.68 51.7533 52.3467 52.12 50.8 52.12C49.52 52.12 48.36 51.82 47.32 51.22C46.28 50.6067 45.46 49.76 44.86 48.68C44.26 47.6 43.96 46.3733 43.96 45ZM64.8097 52.16C63.783 52.16 62.8564 51.9333 62.0297 51.48C61.2164 51.0133 60.5697 50.36 60.0897 49.52C59.623 48.6667 59.3897 47.6733 59.3897 46.54C59.3897 45.4067 59.6297 44.42 60.1097 43.58C60.5897 42.7267 61.243 42.0733 62.0697 41.62C62.8964 41.1533 63.823 40.92 64.8497 40.92C65.8764 40.92 66.803 41.1533 67.6297 41.62C68.4697 42.0733 69.123 42.7267 69.5897 43.58C70.0697 44.42 70.3097 45.4067 70.3097 46.54C70.3097 47.66 70.0697 48.6467 69.5897 49.5C69.1097 50.3533 68.4497 51.0133 67.6097 51.48C66.7697 51.9333 65.8364 52.16 64.8097 52.16ZM64.8097 50.94C65.5297 50.94 66.1964 50.78 66.8097 50.46C67.423 50.1267 67.9164 49.6333 68.2897 48.98C68.6764 48.3133 68.8697 47.5 68.8697 46.54C68.8697 45.58 68.683 44.7733 68.3097 44.12C67.9364 43.4533 67.443 42.96 66.8297 42.64C66.2164 42.3067 65.5497 42.14 64.8297 42.14C64.1097 42.14 63.443 42.3067 62.8297 42.64C62.2164 42.96 61.723 43.4533 61.3497 44.12C60.9897 44.7733 60.8097 45.58 60.8097 46.54C60.8097 47.5 60.9897 48.3133 61.3497 48.98C61.723 49.6333 62.2097 50.1267 62.8097 50.46C63.423 50.78 64.0897 50.94 64.8097 50.94ZM77.9817 40.88C79.2884 40.88 80.3551 41.2867 81.1817 42.1C82.0084 42.9 82.4217 44.0667 82.4217 45.6V52H81.0417V45.76C81.0417 44.5733 80.7417 43.6667 80.1417 43.04C79.5551 42.4133 78.7484 42.1 77.7217 42.1C76.6684 42.1 75.8284 42.4333 75.2017 43.1C74.5751 43.7667 74.2617 44.7467 74.2617 46.04V52H72.8617V41.08H74.2617V42.94C74.6084 42.2733 75.1084 41.7667 75.7617 41.42C76.4151 41.06 77.1551 40.88 77.9817 40.88ZM87.338 42.26V49.04C87.338 49.7067 87.4646 50.1667 87.718 50.42C87.9713 50.6733 88.418 50.8 89.058 50.8H90.338V52H88.838C87.8513 52 87.118 51.7733 86.638 51.32C86.158 50.8533 85.918 50.0933 85.918 49.04V42.26H84.398V41.08H85.918V38.34H87.338V41.08H90.338V42.26H87.338ZM102.527 45.98C102.527 46.46 102.514 46.8267 102.487 47.08H93.4269C93.4669 47.9067 93.6669 48.6133 94.0269 49.2C94.3869 49.7867 94.8602 50.2333 95.4469 50.54C96.0335 50.8333 96.6735 50.98 97.3669 50.98C98.2735 50.98 99.0335 50.76 99.6469 50.32C100.274 49.88 100.687 49.2867 100.887 48.54H102.367C102.1 49.6067 101.527 50.48 100.647 51.16C99.7802 51.8267 98.6869 52.16 97.3669 52.16C96.3402 52.16 95.4202 51.9333 94.6069 51.48C93.7935 51.0133 93.1535 50.36 92.6869 49.52C92.2335 48.6667 92.0069 47.6733 92.0069 46.54C92.0069 45.4067 92.2335 44.4133 92.6869 43.56C93.1402 42.7067 93.7735 42.0533 94.5869 41.6C95.4002 41.1467 96.3269 40.92 97.3669 40.92C98.4069 40.92 99.3135 41.1467 100.087 41.6C100.874 42.0533 101.474 42.6667 101.887 43.44C102.314 44.2 102.527 45.0467 102.527 45.98ZM101.107 45.94C101.12 45.1267 100.954 44.4333 100.607 43.86C100.274 43.2867 99.8135 42.8533 99.2269 42.56C98.6402 42.2667 98.0002 42.12 97.3069 42.12C96.2669 42.12 95.3802 42.4533 94.6469 43.12C93.9135 43.7867 93.5069 44.7267 93.4269 45.94H101.107ZM110.208 40.88C111.515 40.88 112.582 41.2867 113.408 42.1C114.235 42.9 114.648 44.0667 114.648 45.6V52H113.268V45.76C113.268 44.5733 112.968 43.6667 112.368 43.04C111.782 42.4133 110.975 42.1 109.948 42.1C108.895 42.1 108.055 42.4333 107.428 43.1C106.802 43.7667 106.488 44.7467 106.488 46.04V52H105.088V41.08H106.488V42.94C106.835 42.2733 107.335 41.7667 107.988 41.42C108.642 41.06 109.382 40.88 110.208 40.88ZM119.565 42.26V49.04C119.565 49.7067 119.691 50.1667 119.945 50.42C120.198 50.6733 120.645 50.8 121.285 50.8H122.565V52H121.065C120.078 52 119.345 51.7733 118.865 51.32C118.385 50.8533 118.145 50.0933 118.145 49.04V42.26H116.625V41.08H118.145V38.34H119.565V41.08H122.565V42.26H119.565ZM144.022 38.2V52H142.622V40.98L137.702 52H136.682L131.762 41.02V52H130.362V38.2H131.842L137.182 50.16L142.522 38.2H144.022ZM146.558 46.52C146.558 45.4 146.778 44.42 147.218 43.58C147.671 42.7267 148.291 42.0733 149.078 41.62C149.878 41.1533 150.778 40.92 151.778 40.92C152.818 40.92 153.711 41.16 154.458 41.64C155.218 42.12 155.764 42.7333 156.098 43.48V41.08H157.498V52H156.098V49.58C155.751 50.3267 155.198 50.9467 154.438 51.44C153.691 51.92 152.798 52.16 151.758 52.16C150.771 52.16 149.878 51.9267 149.078 51.46C148.291 50.9933 147.671 50.3333 147.218 49.48C146.778 48.6267 146.558 47.64 146.558 46.52ZM156.098 46.54C156.098 45.66 155.918 44.8867 155.558 44.22C155.198 43.5533 154.704 43.04 154.078 42.68C153.464 42.32 152.784 42.14 152.038 42.14C151.264 42.14 150.571 42.3133 149.958 42.66C149.344 43.0067 148.858 43.5133 148.498 44.18C148.151 44.8333 147.978 45.6133 147.978 46.52C147.978 47.4133 148.151 48.2 148.498 48.88C148.858 49.5467 149.344 50.06 149.958 50.42C150.571 50.7667 151.264 50.94 152.038 50.94C152.784 50.94 153.464 50.76 154.078 50.4C154.704 50.04 155.198 49.5267 155.558 48.86C155.918 48.1933 156.098 47.42 156.098 46.54ZM165.814 40.88C167.12 40.88 168.187 41.2867 169.014 42.1C169.84 42.9 170.254 44.0667 170.254 45.6V52H168.874V45.76C168.874 44.5733 168.574 43.6667 167.974 43.04C167.387 42.4133 166.58 42.1 165.554 42.1C164.5 42.1 163.66 42.4333 163.034 43.1C162.407 43.7667 162.094 44.7467 162.094 46.04V52H160.694V41.08H162.094V42.94C162.44 42.2733 162.94 41.7667 163.594 41.42C164.247 41.06 164.987 40.88 165.814 40.88ZM172.71 46.52C172.71 45.4 172.93 44.42 173.37 43.58C173.823 42.7267 174.443 42.0733 175.23 41.62C176.03 41.1533 176.93 40.92 177.93 40.92C178.97 40.92 179.863 41.16 180.61 41.64C181.37 42.12 181.917 42.7333 182.25 43.48V41.08H183.65V52H182.25V49.58C181.903 50.3267 181.35 50.9467 180.59 51.44C179.843 51.92 178.95 52.16 177.91 52.16C176.923 52.16 176.03 51.9267 175.23 51.46C174.443 50.9933 173.823 50.3333 173.37 49.48C172.93 48.6267 172.71 47.64 172.71 46.52ZM182.25 46.54C182.25 45.66 182.07 44.8867 181.71 44.22C181.35 43.5533 180.857 43.04 180.23 42.68C179.617 42.32 178.937 42.14 178.19 42.14C177.417 42.14 176.723 42.3133 176.11 42.66C175.497 43.0067 175.01 43.5133 174.65 44.18C174.303 44.8333 174.13 45.6133 174.13 46.52C174.13 47.4133 174.303 48.2 174.65 48.88C175.01 49.5467 175.497 50.06 176.11 50.42C176.723 50.7667 177.417 50.94 178.19 50.94C178.937 50.94 179.617 50.76 180.23 50.4C180.857 50.04 181.35 49.5267 181.71 48.86C182.07 48.1933 182.25 47.42 182.25 46.54ZM191.426 40.92C192.453 40.92 193.346 41.16 194.106 41.64C194.866 42.12 195.413 42.7267 195.746 43.46V41.08H197.146V52.28C197.146 53.28 196.926 54.1667 196.486 54.94C196.059 55.7133 195.459 56.3067 194.686 56.72C193.913 57.1467 193.033 57.36 192.046 57.36C190.646 57.36 189.479 57.0267 188.546 56.36C187.626 55.6933 187.053 54.7867 186.826 53.64H188.206C188.446 54.4 188.899 55.0067 189.566 55.46C190.246 55.9133 191.073 56.14 192.046 56.14C192.753 56.14 193.386 55.9867 193.946 55.68C194.506 55.3867 194.946 54.9467 195.266 54.36C195.586 53.7733 195.746 53.08 195.746 52.28V49.58C195.399 50.3267 194.846 50.9467 194.086 51.44C193.339 51.92 192.453 52.16 191.426 52.16C190.426 52.16 189.526 51.9267 188.726 51.46C187.939 50.9933 187.319 50.3333 186.866 49.48C186.426 48.6267 186.206 47.64 186.206 46.52C186.206 45.4 186.426 44.42 186.866 43.58C187.319 42.7267 187.939 42.0733 188.726 41.62C189.526 41.1533 190.426 40.92 191.426 40.92ZM195.746 46.54C195.746 45.66 195.566 44.8867 195.206 44.22C194.846 43.5533 194.353 43.04 193.726 42.68C193.113 42.32 192.433 42.14 191.686 42.14C190.913 42.14 190.219 42.3133 189.606 42.66C188.993 43.0067 188.506 43.5133 188.146 44.18C187.799 44.8333 187.626 45.6133 187.626 46.52C187.626 47.4133 187.799 48.2 188.146 48.88C188.506 49.5467 188.993 50.06 189.606 50.42C190.219 50.7667 190.913 50.94 191.686 50.94C192.433 50.94 193.113 50.76 193.726 50.4C194.353 50.04 194.846 49.5267 195.206 48.86C195.566 48.1933 195.746 47.42 195.746 46.54ZM210.222 45.98C210.222 46.46 210.209 46.8267 210.182 47.08H201.122C201.162 47.9067 201.362 48.6133 201.722 49.2C202.082 49.7867 202.556 50.2333 203.142 50.54C203.729 50.8333 204.369 50.98 205.062 50.98C205.969 50.98 206.729 50.76 207.342 50.32C207.969 49.88 208.382 49.2867 208.582 48.54H210.062C209.796 49.6067 209.222 50.48 208.342 51.16C207.476 51.8267 206.382 52.16 205.062 52.16C204.036 52.16 203.116 51.9333 202.302 51.48C201.489 51.0133 200.849 50.36 200.382 49.52C199.929 48.6667 199.702 47.6733 199.702 46.54C199.702 45.4067 199.929 44.4133 200.382 43.56C200.836 42.7067 201.469 42.0533 202.282 41.6C203.096 41.1467 204.022 40.92 205.062 40.92C206.102 40.92 207.009 41.1467 207.782 41.6C208.569 42.0533 209.169 42.6667 209.582 43.44C210.009 44.2 210.222 45.0467 210.222 45.98ZM208.802 45.94C208.816 45.1267 208.649 44.4333 208.302 43.86C207.969 43.2867 207.509 42.8533 206.922 42.56C206.336 42.2667 205.696 42.12 205.002 42.12C203.962 42.12 203.076 42.4533 202.342 43.12C201.609 43.7867 201.202 44.7267 201.122 45.94H208.802ZM214.184 43.02C214.49 42.34 214.957 41.8133 215.584 41.44C216.224 41.0667 217.004 40.88 217.924 40.88V42.34H217.544C216.53 42.34 215.717 42.6133 215.104 43.16C214.49 43.7067 214.184 44.62 214.184 45.9V52H212.784V41.08H214.184V43.02Z" fill="white"/>
<defs>
<linearGradient id="paint0_linear_23_83" x1="35.944" y1="12" x2="36" y2="52" gradientUnits="userSpaceOnUse">
<stop stop-color="#C409F2"/>
<stop offset="1" stop-color="#1335EA"/>
</linearGradient>
<linearGradient id="paint1_linear_23_83" x1="14.5198" y1="14.7103" x2="25.0936" y2="53.9354" gradientUnits="userSpaceOnUse">
<stop stop-color="#1335EA"/>
<stop offset="1" stop-color="#C409F2"/>
</linearGradient>
</defs>
</svg>
